<?xml version="1.0" encoding="UTF-8" standalone="no"?>
<!-- Generator: Adobe Illustrator 19.2.1, SVG Export Plug-In . SVG Version: 6.00 Build 0)  -->

<svg
   xmlns:dc="http://purl.org/dc/elements/1.1/"
   xmlns:cc="http://creativecommons.org/ns#"
   xmlns:rdf="http://www.w3.org/1999/02/22-rdf-syntax-ns#"
   xmlns:svg="http://www.w3.org/2000/svg"
   xmlns="http://www.w3.org/2000/svg"
   xmlns:sodipodi="http://sodipodi.sourceforge.net/DTD/sodipodi-0.dtd"
   xmlns:inkscape="http://www.inkscape.org/namespaces/inkscape"
   version="1.1"
   id="Capa_1"
   x="0px"
   y="0px"
   viewBox="0 0 97.8 97.8"
   style="enable-background:new 0 0 97.8 97.8;"
   xml:space="preserve"
   sodipodi:docname="i.svg"
   inkscape:version="0.92.2 (5c3e80d, 2017-08-06)"><metadata
     id="metadata19"><rdf:RDF><cc:Work
         rdf:about=""><dc:format>image/svg+xml</dc:format><dc:type
           rdf:resource="http://purl.org/dc/dcmitype/StillImage" /><dc:title></dc:title></cc:Work></rdf:RDF></metadata><defs
     id="defs17" /><sodipodi:namedview
     pagecolor="#ffffff"
     bordercolor="#666666"
     borderopacity="1"
     objecttolerance="10"
     gridtolerance="10"
     guidetolerance="10"
     inkscape:pageopacity="0"
     inkscape:pageshadow="2"
     inkscape:window-width="1021"
     inkscape:window-height="480"
     id="namedview15"
     showgrid="false"
     inkscape:zoom="2.4130879"
     inkscape:cx="48.900002"
     inkscape:cy="48.900002"
     inkscape:window-x="0"
     inkscape:window-y="0"
     inkscape:window-maximized="0"
     inkscape:current-layer="Capa_1" /><g
     id="g12"><g class="bg"
       id="g10"><ellipse
         cx="48.9"
         cy="48.8"
         rx="9.9"
         ry="9.6"
         id="ellipse2" /><path
         d="M64.3,49.3c0,8.2-6.9,14.9-15.4,14.9s-15.4-6.7-15.4-14.9c0-1.5,0.2-2.9,0.6-4.3h-4.6V66c0,1.1,0.9,2,2,2h34.5    c1.1,0,2-0.9,2-2V45.1h-4.4C64.1,46.4,64.3,47.8,64.3,49.3z"
         id="path4" /><path
         d="M60.2,39.4h5.6c1.2,0,2.2-1,2.2-2.2v-5.3c0-1.2-1-2.2-2.2-2.2h-5.6c-1.2,0-2.2,1-2.2,2.2v5.3C58,38.4,59,39.4,60.2,39.4z"
         id="path6" /><path
         d="M48.9,0C21.9,0,0,21.9,0,48.9s21.9,48.9,48.9,48.9s48.9-21.9,48.9-48.9S75.9,0,48.9,0z M67.3,73.6H30.5    c-3.5,0-6.4-2.6-6.4-6.4V30.5c0-3.8,2.9-6.4,6.4-6.4h36.8c3.5,0,6.4,2.6,6.4,6.4v36.8C73.6,71.1,70.8,73.6,67.3,73.6z"
         id="path8" /></g></g></svg>