<svg xmlns="http://www.w3.org/2000/svg" viewBox="0 0 512 512"><defs><style></style></defs><title>Ресурс 1</title><g id="Слой_2" data-name="Слой 2"><g id="Layer_1" data-name="Layer 1"><path class="bg" d="M512,264.26V198.19H346.84v-8.26a57.87,57.87,0,0,0-51-57.36,57.6,57.6,0,0,0,17.92-41.74V25.77A25.77,25.77,0,0,0,272,5.59,36.25,36.25,0,0,0,252.58,0H234.64a36.49,36.49,0,0,0-36.45,36.45V90.84a57.6,57.6,0,0,0,17.92,41.74,57.87,57.87,0,0,0-51,57.36v8.26H0v66.06H16.52V445.94H0V512H512V445.94H495.48V264.26ZM214.71,36.45a20,20,0,0,1,19.93-19.93h17.94a19.8,19.8,0,0,1,14.1,5.84l5.84,5.84,9-9a9.26,9.26,0,0,1,15.81,6.55V56.12c-8.2-3.06-16-9.49-18.94-12.42L272.52,38l-5.82,5.73c-.21.21-19.77,19.07-52,22V36.45Zm0,54.39v-8.7a109.35,109.35,0,0,0,57.71-21.69c5.6,4.48,14.67,10.49,24.87,12.83V90.84a41.29,41.29,0,0,1-82.58,0Zm-33,99.1A41.34,41.34,0,0,1,223,148.65H289a41.34,41.34,0,0,1,41.29,41.29v8.26H305.55V181.68H289v16.52H223V181.68H206.45v16.52H181.68ZM495.48,495.48h-479v-33h479ZM33,445.94V264.26H74.32V445.94Zm57.81,0V264.26h41.29V445.94Zm57.81,0V264.26h41.29V445.94Zm57.81,0V264.26h41.29V445.94Zm57.81,0V264.26h41.29V445.94Zm57.81,0V264.26h41.29V445.94ZM437.68,280.77V264.26H479V445.94H437.68V297.29H421.16V445.94H379.87V264.26h41.29v16.52Zm-421.16-33v-33h479v33Z"/><path class="bg" d="M462.45,132.13c0,22.31-7.32,37.48-7.39,37.6l14.77,7.39c.37-.76,9.13-18.57,9.13-45,0-14-4.5-25.23-8.84-36.1-3.95-9.86-7.67-19.17-7.67-30,0-20.86,14-35.33,14.12-35.48l-5.86-5.81-5.84-5.84c-.78.78-18.94,19.26-18.94,47.13,0,14,4.5,25.23,8.84,36.1C458.73,112,462.45,121.33,462.45,132.13Z"/><path class="bg" d="M41.29,132.13c0,22.31-7.32,37.48-7.39,37.6l14.77,7.39c.37-.76,9.13-18.57,9.13-45,0-14-4.5-25.23-8.84-36.1-3.95-9.86-7.67-19.17-7.67-30,0-20.86,14-35.33,14.12-35.48l-5.86-5.81-5.84-5.84c-.78.78-18.94,19.26-18.94,47.13,0,14,4.5,25.23,8.84,36.1C37.57,112,41.29,121.33,41.29,132.13Z"/><path class="bg" d="M107.35,132.13c0,22.31-7.32,37.48-7.39,37.6l14.77,7.39c.37-.76,9.13-18.57,9.13-45,0-14-4.5-25.23-8.84-36.1-3.95-9.86-7.67-19.17-7.67-30,0-20.86,14-35.33,14.12-35.48l-5.86-5.81-5.84-5.84c-.78.78-18.94,19.26-18.94,47.13,0,14,4.5,25.23,8.84,36.1C103.63,112,107.35,121.33,107.35,132.13Z"/><path class="bg" d="M396.39,132.13H412.9c0-14-4.5-25.23-8.84-36.1-3.95-9.86-7.67-19.17-7.67-30,0-20.86,14-35.33,14.12-35.48l-5.86-5.81-5.84-5.84c-.78.78-18.94,19.26-18.94,47.13,0,14,4.5,25.23,8.84,36.1C392.66,112,396.39,121.33,396.39,132.13Z"/><path class="bg" d="M389,169.74l14.79,7.36c.21-.43,5.32-10.81,7.79-27.22l-16.34-2.47C393.17,161.07,389,169.68,389,169.74Z"/></g></g></svg>