<svg xmlns="http://www.w3.org/2000/svg" viewBox="0 0 500.55 512"><defs><style></style></defs><title>Ресурс 1</title><g id="Слой_2" data-name="Слой 2"><g id="Layer_1" data-name="Layer 1"><path class="bg" d="M144.76,297.56a35.8,35.8,0,0,0-26-11.28H95.28a35.68,35.68,0,0,0-35.6,38l1,16h0l2.43,37.32a43.94,43.94,0,0,0,87.7,0l2.78-42.65.7-10.66A35.8,35.8,0,0,0,144.76,297.56ZM80,323a15.28,15.28,0,0,1,15.25-16.27h16.1l-2.86,7.63c-1.46,2.08-8.6,10.73-28.13,14Zm50.46,53.3a23.54,23.54,0,0,1-47,0l-1.79-27.51c16.63-2.44,27.6-8.14,34.53-13.52a36.46,36.46,0,0,0,4.07,2.43,66.58,66.58,0,0,0,12.4,4.46Zm-.81-56.73c-.43-.22-.79-.43-1.11-.62l2.32-6.18A15,15,0,0,1,134,321.2,30.12,30.12,0,0,1,129.69,319.52Z"/><path class="bg" d="M213.85,500,210,478.54a65.79,65.79,0,0,0-64.75-54.07h-11.7a10.2,10.2,0,0,0-7.21,3L107,446.76l-19.3-19.3a10.2,10.2,0,0,0-7.21-3H68.8A65.79,65.79,0,0,0,4,478.54L.16,500a10.2,10.2,0,0,0,10,12H203.81a10.2,10.2,0,0,0,10-12ZM22.41,491.6l1.71-9.42A45.39,45.39,0,0,1,68.8,444.87h7.47l23.52,23.52a10.2,10.2,0,0,0,14.43,0l23.52-23.52h7.47a45.39,45.39,0,0,1,44.68,37.31l1.71,9.42H22.41Z"/><path class="bg" d="M431.3,297.56a35.8,35.8,0,0,0-26-11.28H381.82a35.68,35.68,0,0,0-35.6,38l1,16h0l2.43,37.32a43.94,43.94,0,0,0,87.7,0l2.78-42.65.7-10.66A35.81,35.81,0,0,0,431.3,297.56ZM366.57,323a15.28,15.28,0,0,1,15.25-16.27h16.1l-2.86,7.63c-1.46,2.08-8.61,10.73-28.13,14ZM417,376.25a23.54,23.54,0,0,1-47,0l-1.79-27.51c16.63-2.44,27.6-8.14,34.54-13.52a36.46,36.46,0,0,0,4.07,2.43,66.58,66.58,0,0,0,12.4,4.46Zm-.81-56.73c-.43-.22-.79-.43-1.11-.62l2.32-6.18a15,15,0,0,1,3.09,8.47A30.23,30.23,0,0,1,416.22,319.52Z"/><path class="bg" d="M500.38,500l-3.89-21.44a65.79,65.79,0,0,0-64.75-54.07h-11.7a10.2,10.2,0,0,0-7.21,3l-19.3,19.3-19.3-19.3a10.2,10.2,0,0,0-7.21-3h-11.7a65.79,65.79,0,0,0-64.75,54.07L286.7,500a10.2,10.2,0,0,0,10,12H490.34a10.2,10.2,0,0,0,10-12ZM308.95,491.6l1.71-9.42a45.39,45.39,0,0,1,44.68-37.31h7.47l23.52,23.52a10.2,10.2,0,0,0,14.42,0l23.52-23.52h7.47a45.39,45.39,0,0,1,44.68,37.31l1.71,9.42Z"/><path class="bg" d="M288,11.28A35.8,35.8,0,0,0,262,0H238.55a35.68,35.68,0,0,0-35.6,38l1,16,2.43,37.32a43.94,43.94,0,0,0,87.7,0l2.78-42.65L297.6,38A35.81,35.81,0,0,0,288,11.28ZM223.3,36.67A15.28,15.28,0,0,1,238.55,20.4h16.1L251.79,28c-1.46,2.08-8.6,10.73-28.13,14ZM273.77,90a23.54,23.54,0,0,1-47,0L225,62.46c16.63-2.44,27.6-8.14,34.54-13.52a36.47,36.47,0,0,0,4.07,2.43A66.64,66.64,0,0,0,276,55.82ZM273,33.24c-.43-.22-.79-.43-1.11-.62l2.32-6.18a15,15,0,0,1,3.09,8.47A30.31,30.31,0,0,1,273,33.24Z"/><path class="bg" d="M357.11,213.7l-3.88-21.44a65.79,65.79,0,0,0-64.75-54.07h-11.7a10.2,10.2,0,0,0-7.21,3l-19.3,19.3L231,141.18a10.2,10.2,0,0,0-7.21-3h-11.7a65.79,65.79,0,0,0-64.75,54.07l-3.88,21.44a10.2,10.2,0,0,0,10,12H347.08a10.2,10.2,0,0,0,10-12Zm-191.43-8.38,1.71-9.42a45.39,45.39,0,0,1,44.68-37.31h7.47l23.52,23.52a10.2,10.2,0,0,0,14.43,0L281,158.59h7.47a45.39,45.39,0,0,1,44.68,37.31l1.71,9.42Z"/><path class="bg" d="M247.2,244.26a10.2,10.2,0,0,0-10.2,10.2v3.07a10.2,10.2,0,1,0,20.4,0v-3.07A10.2,10.2,0,0,0,247.2,244.26Z"/><path class="bg" d="M318.85,360.89,257.4,325.41V287.24a10.2,10.2,0,0,0-20.4,0v38.17h0l-61.45,35.48a10.2,10.2,0,1,0,10.2,17.67l61.45-35.48,61.45,35.48a10.2,10.2,0,1,0,10.2-17.66Z"/></g></g></svg>