<svg xmlns="http://www.w3.org/2000/svg" viewBox="0 0 512 507.78"><defs><style>.cls-1{fill:#000}</style></defs><g id="Слой_2" data-name="Слой 2"><g id="Capa_1" data-name="Capa 1"><path class="cls-1" d="M503.71 473.5c-15 0-23.09 5.76-29.57 10.39-5.7 4.08-10.21 7.3-19.92 7.3S440 488 434.29 483.9c-6.48-4.63-14.54-10.39-29.58-10.39s-23.11 5.76-29.59 10.39c-5.71 4.08-10.22 7.3-19.94 7.3s-14.24-3.22-19.94-7.3c-6.48-4.63-14.55-10.39-29.59-10.39s-23.11 5.76-29.59 10.39c-5.71 4.08-10.22 7.3-19.95 7.3h-.69v-86.37l178 52a61.29 61.29 0 0 0 76.1-41.83c.06-.2.11-.4.15-.61a8.3 8.3 0 0 0-5.74-9.92l-76.6-22.36a44.88 44.88 0 0 1-30.57-55.28 8.29 8.29 0 0 0-5.65-10.23L344.52 303a61.32 61.32 0 0 0-.36-110.73 61.68 61.68 0 0 0 34.08-44.11c5.87-30.68-14-61.81-45.15-70.86L69.27.68A17.16 17.16 0 0 0 48 12.36l-24.67 85a17.14 17.14 0 0 0 11.68 21.24l43.24 12.55c-.76.38-1.51.76-2.26 1.17a61.37 61.37 0 0 0 3.51 109.3c-1.17.55-2.33 1.13-3.47 1.75A61 61 0 0 0 46.65 280a61.44 61.44 0 0 0 41.82 76l115 33.57v83.93c-13.07.73-20.47 6-26.49 10.3-5.71 4.08-10.22 7.3-19.94 7.3s-14.25-3.22-20-7.3c-6.48-4.63-14.55-10.39-29.6-10.39s-23.13 5.76-29.62 10.39c-5.72 4.08-10.24 7.3-20 7.3s-14.26-3.22-20-7.3c-6.49-4.63-14.56-10.39-29.62-10.39a8.29 8.29 0 1 0 0 16.59c9.74 0 14.26 3.22 20 7.3 6.49 4.63 14.56 10.39 29.62 10.39S81 502 87.51 497.39c5.72-4.08 10.24-7.3 20-7.3s14.25 3.22 20 7.3C133.93 502 142 507.78 157 507.78s23.1-5.76 29.58-10.39c5.71-4.08 10.22-7.3 19.94-7.3s14.24 3.22 20 7.3c6.48 4.63 14.55 10.39 29.59 10.39s23.11-5.76 29.59-10.39c5.71-4.08 10.22-7.3 19.94-7.3s14.24 3.22 19.94 7.3c6.48 4.63 14.55 10.39 29.59 10.39s23.11-5.76 29.59-10.39c5.71-4.08 10.22-7.3 19.94-7.3s14.23 3.22 19.93 7.3c6.48 4.63 14.54 10.39 29.58 10.39s23.09-5.76 29.57-10.39c5.7-4.08 10.21-7.3 19.92-7.3a8.29 8.29 0 1 0 0-16.59zM361.94 145a44.72 44.72 0 0 1-56.52 34.76l-230.6-66.92 25-86L328.46 93.2c23.05 6.69 37.76 29.45 33.48 51.8zM39.3 102L64 17a.55.55 0 0 1 .53-.4h.15l19.21 5.58-25 86-19.21-5.58a.55.55 0 0 1-.38-.6zm23.28 71.64a44.69 44.69 0 0 1 55.5-30.53l212.32 61.6a44.78 44.78 0 1 1-25 86L93.11 229.08a44.84 44.84 0 0 1-30.53-55.49zm0 111.08a44.79 44.79 0 0 1 55.49-30.52l261 76.19A61.53 61.53 0 0 0 422.7 398l67.95 19.83a44.67 44.67 0 0 1-52.55 23l-345-100.7a44.84 44.84 0 0 1-30.52-55.46zm157.48 190.63V394.5l18.8 5.49v85.8c-.89-.6-1.78-1.24-2.7-1.9-4.16-3-9.09-6.47-16.1-8.54z"/><path class="cls-1" d="M121 69.82L135.29 74a8.29 8.29 0 1 0 4.62-16l-14.3-4.15A8.29 8.29 0 0 0 121 69.82zm53.06 15.41l35.39 10.27a8.29 8.29 0 0 0 4.63-15.93L178.69 69.3a8.29 8.29 0 0 0-4.63 15.93zM156.38 191L236 214.14a8.29 8.29 0 0 0 4.63-15.93L161 175.1a8.29 8.29 0 0 0-4.62 15.9zm-48.19-14l12.81 3.75a8.29 8.29 0 0 0 4.63-15.93l-12.79-3.71a8.29 8.29 0 0 0-4.65 15.89zm176.68 145.42L161 286.27a8.29 8.29 0 1 0-4.65 15.92l123.85 36.15a8.29 8.29 0 1 0 4.65-15.92zm-159.24-46.48l-12.8-3.74a8.29 8.29 0 0 0-4.65 15.92l12.8 3.74a8.29 8.29 0 0 0 4.65-15.92z"/></g></g></svg>