<svg xmlns="http://www.w3.org/2000/svg" viewBox="0 0 512 400.7"><defs><style>.cls-1{fill:#fff}</style></defs><g id="Слой_2" data-name="Слой 2"><g id="Capa_1" data-name="Capa 1"><path class="cls-1" d="M456.35 155.83H55.65A55.73 55.73 0 0 0 0 211.48V345a55.73 55.73 0 0 0 55.65 55.7h400.7A55.73 55.73 0 0 0 512 345V211.48a55.73 55.73 0 0 0-55.65-55.65zM489.74 345a33.43 33.43 0 0 1-33.39 33.39H55.65A33.43 33.43 0 0 1 22.26 345V211.48a33.43 33.43 0 0 1 33.39-33.39h400.7a33.43 33.43 0 0 1 33.39 33.39zM256 0a55.65 55.65 0 1 0 55.65 55.65A55.73 55.73 0 0 0 256 0zm0 89a33.39 33.39 0 1 1 33.39-33.39A33.43 33.43 0 0 1 256 89z"/><path class="cls-1" d="M219.34 47.79a11.14 11.14 0 0 0-15.74 0L92.29 159.1A11.13 11.13 0 0 0 108 174.84l111.3-111.3a11.14 11.14 0 0 0 .04-15.75zM419.68 159.1L308.38 47.79a11.13 11.13 0 0 0-15.74 15.74l111.3 111.3a11.13 11.13 0 1 0 15.74-15.74zM55.65 222.61a11.14 11.14 0 0 0-11.13 11.13v89a11.13 11.13 0 0 0 22.26 0v-89a11.13 11.13 0 0 0-11.13-11.13zm44.52 0A11.14 11.14 0 0 0 89 233.74v89a11.13 11.13 0 0 0 22.26 0v-89a11.13 11.13 0 0 0-11.09-11.13z"/><path class="cls-1" d="M100.17 267.13H55.65a11.13 11.13 0 1 0 0 22.26h44.52a11.13 11.13 0 1 0 0-22.26zM167 222.61A33.43 33.43 0 0 0 133.57 256v44.52a33.39 33.39 0 1 0 66.78 0V256A33.43 33.43 0 0 0 167 222.61zm11.13 77.91a11.13 11.13 0 0 1-22.26 0V256a11.13 11.13 0 0 1 22.26 0v44.52zm111.26-77.91h-66.78a11.13 11.13 0 1 0 0 22.26h66.78a11.13 11.13 0 1 0 0-22.26z"/><path class="cls-1" d="M256 222.61a11.14 11.14 0 0 0-11.13 11.13v89a11.13 11.13 0 0 0 22.26 0v-89A11.13 11.13 0 0 0 256 222.61zm111.3 89.04h-33.39v-66.78h33.39a11.13 11.13 0 0 0 0-22.26h-44.52a11.14 11.14 0 0 0-11.13 11.13v89a11.14 11.14 0 0 0 11.13 11.13h44.52a11.13 11.13 0 1 0 0-22.26z"/><path class="cls-1" d="M345 267.13h-22.22a11.13 11.13 0 0 0 0 22.26H345a11.13 11.13 0 0 0 0-22.26zm111.35 44.52H423v-77.91a11.13 11.13 0 1 0-22.26 0v89a11.14 11.14 0 0 0 11.13 11.13h44.52a11.13 11.13 0 1 0 0-22.26z"/></g></g></svg>