<svg xmlns="http://www.w3.org/2000/svg" viewBox="0 0 512 512"><defs><style>.cls-1{fill:#fff}</style></defs><g id="Слой_2" data-name="Слой 2"><g id="Capa_1" data-name="Capa 1"><path class="cls-1" d="M457.57 316a31 31 0 0 0-49.46-22.56l-52.55 39.36h-.15a29.83 29.83 0 0 0-26.87-17.07h-52.89L256.51 303a25.52 25.52 0 0 0-14.21-4.3h-56.79a25.58 25.58 0 0 0-16.66 6.16l-48.95 41.95-11.47-11.51a8.52 8.52 0 0 0-12.07 0l-51.2 51.2a8.52 8.52 0 0 0 0 12.07L156.1 509.5a8.53 8.53 0 0 0 12.07 0l51.2-51.2a8.52 8.52 0 0 0 0-12.07l-11-11 6-6a8.48 8.48 0 0 1 6-2.5l123.8.16h.05a43 43 0 0 0 30.2-12.52l74.13-74.27a31 31 0 0 0 9.02-24.1zM162.13 491.4l-98.86-98.87 39.13-39.13 98.87 98.87zM436.5 328l-74.13 74.27a25.76 25.76 0 0 1-18.12 7.51l-123.8-.16a25.42 25.42 0 0 0-18.11 7.5l-6 6L132 358.88l48-41.1a8.61 8.61 0 0 1 5.56-2h56.74a8.51 8.51 0 0 1 4.74 1.43l21.3 14.2a8.58 8.58 0 0 0 4.74 1.43h55.47a12.81 12.81 0 0 1 12.8 12.78c0 .18 0 .35-.05.53a12.42 12.42 0 0 1-.2 2c-1.16 5.85-7 10.25-13.64 10.25h-80v17.07h81.07a29.67 29.67 0 0 0 22.37-10.29l.15-.19a30.51 30.51 0 0 0 2.76-3.67c.38-.6.68-1.25 1-1.89a28.09 28.09 0 0 0 1.35-2.68 29.46 29.46 0 0 0 1.24-4c.11-.44.29-.84.38-1.29v-.13c.1-.5.18-1 .26-1.5h.31a8.51 8.51 0 0 0 5.12-1.71L418.34 307a13.89 13.89 0 0 1 18.16 21zM34.13 17.07V0H17.07v17.07H0v17.06h17.07V51.2h17.06V34.13H51.2V17.07H34.13zm68.27 17.06V17.07H85.33v17.06H68.27V51.2h17.06v17.07h17.07V51.2h17.07V34.13H102.4zm256 102.4v17.07a59.8 59.8 0 0 1 59.73 59.73h17.07a76.89 76.89 0 0 0-76.8-76.8z"/><path class="cls-1" d="M508.48 232.21C491.07 131.58 407.42 63.78 290.13 52.8V25.6A25.63 25.63 0 0 0 264.53 0h-17.06a25.63 25.63 0 0 0-25.6 25.6v27.2C104.58 63.8 20.94 131.57 3.53 232.2A8.38 8.38 0 0 0 0 238.93v34.13a8.53 8.53 0 0 0 8.53 8.53h494.94a8.53 8.53 0 0 0 8.53-8.53v-34.13a8.38 8.38 0 0 0-3.52-6.72zM238.93 25.6a8.54 8.54 0 0 1 8.53-8.53h17.07a8.54 8.54 0 0 1 8.53 8.53v26h-1.19c-5.24-.22-10.52-.38-15.88-.38s-10.64.15-15.88.38h-1.19zm-7.27 43.55a348.46 348.46 0 0 1 48.68 0c111.69 7.75 192.22 69 210.5 161.25H21.15C39.43 138.14 120 76.89 231.66 69.15zm263.27 195.38H17.07v-17.06h477.86z"/></g></g></svg>