<svg xmlns="http://www.w3.org/2000/svg" viewBox="0 0 512 512"><defs><style>.cls-1{fill:#fff}</style></defs><g id="Слой_2" data-name="Слой 2"><g id="Layer_1" data-name="Layer 1"><path class="cls-1" d="M512 264.26v-66.07H346.84v-8.26a57.87 57.87 0 0 0-51-57.36 57.6 57.6 0 0 0 17.92-41.74V25.77A25.77 25.77 0 0 0 272 5.59 36.25 36.25 0 0 0 252.58 0h-17.94a36.49 36.49 0 0 0-36.45 36.45v54.39a57.6 57.6 0 0 0 17.92 41.74 57.87 57.87 0 0 0-51 57.36v8.26H0v66.06h16.52v181.68H0V512h512v-66.06h-16.52V264.26zM214.71 36.45a20 20 0 0 1 19.93-19.93h17.94a19.8 19.8 0 0 1 14.1 5.84l5.84 5.84 9-9a9.26 9.26 0 0 1 15.81 6.55v30.37c-8.2-3.06-16-9.49-18.94-12.42l-5.87-5.7-5.82 5.73c-.21.21-19.77 19.07-52 22V36.45zm0 54.39v-8.7a109.35 109.35 0 0 0 57.71-21.69c5.6 4.48 14.67 10.49 24.87 12.83v17.56a41.29 41.29 0 0 1-82.58 0zm-33 99.1A41.34 41.34 0 0 1 223 148.65h66a41.34 41.34 0 0 1 41.29 41.29v8.26h-24.74v-16.52H289v16.52h-66v-16.52h-16.55v16.52h-24.77zm313.77 305.54h-479v-33h479zM33 445.94V264.26h41.32v181.68zm57.81 0V264.26h41.29v181.68zm57.81 0V264.26h41.29v181.68zm57.81 0V264.26h41.29v181.68zm57.81 0V264.26h41.29v181.68zm57.81 0V264.26h41.29v181.68zm115.63-165.17v-16.51H479v181.68h-41.32V297.29h-16.52v148.65h-41.29V264.26h41.29v16.52zm-421.16-33v-33h479v33z"/><path class="cls-1" d="M462.45 132.13c0 22.31-7.32 37.48-7.39 37.6l14.77 7.39c.37-.76 9.13-18.57 9.13-45 0-14-4.5-25.23-8.84-36.1-3.95-9.86-7.67-19.17-7.67-30 0-20.86 14-35.33 14.12-35.48l-5.86-5.81-5.84-5.84c-.78.78-18.94 19.26-18.94 47.13 0 14 4.5 25.23 8.84 36.1 3.96 9.88 7.68 19.21 7.68 30.01zm-421.16 0c0 22.31-7.32 37.48-7.39 37.6l14.77 7.39c.37-.76 9.13-18.57 9.13-45 0-14-4.5-25.23-8.84-36.1-3.95-9.86-7.67-19.17-7.67-30 0-20.86 14-35.33 14.12-35.48l-5.86-5.81-5.84-5.84c-.78.78-18.94 19.26-18.94 47.13 0 14 4.5 25.23 8.84 36.1 3.96 9.88 7.68 19.21 7.68 30.01zm66.06 0c0 22.31-7.32 37.48-7.39 37.6l14.77 7.39c.37-.76 9.13-18.57 9.13-45 0-14-4.5-25.23-8.84-36.1-3.95-9.86-7.67-19.17-7.67-30 0-20.86 14-35.33 14.12-35.48l-5.86-5.81-5.84-5.84c-.78.78-18.94 19.26-18.94 47.13 0 14 4.5 25.23 8.84 36.1 3.96 9.88 7.68 19.21 7.68 30.01zm289.04 0h16.51c0-14-4.5-25.23-8.84-36.1-3.95-9.86-7.67-19.17-7.67-30 0-20.86 14-35.33 14.12-35.48l-5.86-5.81-5.84-5.84c-.78.78-18.94 19.26-18.94 47.13 0 14 4.5 25.23 8.84 36.1 3.95 9.87 7.68 19.2 7.68 30zM389 169.74l14.79 7.36c.21-.43 5.32-10.81 7.79-27.22l-16.34-2.47c-2.07 13.66-6.24 22.27-6.24 22.33z"/></g></g></svg>