<svg xmlns="http://www.w3.org/2000/svg" viewBox="0 0 511.999 511.999" width="512" height="512"><path class="bg" d="M150.49 297.564a35.805 35.805 0 0 0-26.032-11.283h-23.451c-9.826 0-19.315 4.112-26.032 11.283a35.804 35.804 0 0 0-9.567 26.714l1.042 15.982v.001l2.434 37.319c.981 15.05 9.457 28.374 22.672 35.643 6.63 3.646 13.904 5.47 21.177 5.47s14.547-1.824 21.177-5.47c13.215-7.269 21.692-20.593 22.672-35.643l2.781-42.647.696-10.656a35.805 35.805 0 0 0-9.569-26.713zm-64.728 25.387c-.277-4.261 1.177-8.325 4.097-11.439 2.918-3.116 6.877-4.831 11.148-4.831h16.102l-2.863 7.634c-1.461 2.078-8.605 10.73-28.132 14.005l-.352-5.369zm50.464 53.301c-.525 8.063-5.067 15.203-12.148 19.097-7.104 3.907-15.587 3.907-22.691 0-7.08-3.894-11.623-11.034-12.148-19.097l-1.794-27.511c16.634-2.444 27.599-8.14 34.534-13.524a36.455 36.455 0 0 0 4.069 2.43c2.885 1.491 6.98 2.964 12.404 4.458l-2.226 34.147zm-.813-56.727a19.217 19.217 0 0 1-1.106-.617l2.317-6.179a15.033 15.033 0 0 1 3.094 8.474c-2.445-.8-3.714-1.371-4.305-1.678zm84.159 180.457l-3.882-21.438c-4.828-26.653-25.945-47.925-52.544-52.934a66.054 66.054 0 0 0-12.206-1.14h-11.696a10.204 10.204 0 0 0-7.212 2.987l-19.299 19.299-19.299-19.299a10.203 10.203 0 0 0-7.212-2.987H74.525c-4.084 0-8.191.383-12.206 1.14-26.6 5.009-47.715 26.281-52.543 52.933L5.89 499.982a10.2 10.2 0 0 0 10.036 12.016h193.609c3.023 0 5.89-1.341 7.829-3.661a10.204 10.204 0 0 0 2.208-8.355zm-191.431-8.38l1.707-9.422c3.332-18.39 17.898-33.068 36.246-36.523a45.71 45.71 0 0 1 8.432-.787h7.471l23.523 23.523c3.984 3.982 10.44 3.982 14.425 0l23.523-23.523h7.471c2.821 0 5.657.265 8.432.787 18.348 3.455 32.915 18.133 36.247 36.524l1.706 9.421H28.141zm408.885-194.039a35.805 35.805 0 0 0-26.032-11.283h-23.45a35.808 35.808 0 0 0-26.033 11.284 35.804 35.804 0 0 0-9.567 26.714l1.042 15.981v.001l2.434 37.319c.981 15.05 9.457 28.374 22.672 35.643 6.63 3.646 13.904 5.47 21.177 5.47s14.547-1.824 21.177-5.47c13.215-7.269 21.692-20.593 22.672-35.643l2.781-42.647.696-10.656a35.813 35.813 0 0 0-9.569-26.713zm-64.728 25.388c-.277-4.261 1.177-8.325 4.097-11.439 2.918-3.116 6.877-4.831 11.148-4.831h16.101l-2.863 7.634c-1.461 2.078-8.605 10.73-28.132 14.005l-.351-5.369zm50.464 53.301a23.44 23.44 0 0 1-12.148 19.097c-7.104 3.907-15.587 3.907-22.691 0-7.08-3.894-11.623-11.034-12.148-19.097l-1.794-27.511c16.634-2.444 27.6-8.14 34.535-13.524a36.455 36.455 0 0 0 4.069 2.43c2.885 1.491 6.98 2.964 12.404 4.458l-2.227 34.147zm-.813-56.727a18.827 18.827 0 0 1-1.105-.617l2.317-6.179a15.047 15.047 0 0 1 3.093 8.474c-2.444-.8-3.713-1.371-4.305-1.678zm84.16 180.457l-3.885-21.439c-4.827-26.653-25.944-47.925-52.543-52.934a66.054 66.054 0 0 0-12.206-1.14h-11.696a10.204 10.204 0 0 0-7.212 2.987l-19.299 19.299-19.299-19.299a10.203 10.203 0 0 0-7.212-2.987H361.06c-4.084 0-8.191.384-12.206 1.14-26.599 5.009-47.715 26.281-52.543 52.933l-3.885 21.439a10.2 10.2 0 0 0 10.036 12.017h193.609a10.201 10.201 0 0 0 10.038-12.016zm-191.433-8.381l1.707-9.421c3.332-18.39 17.898-33.068 36.246-36.523a45.71 45.71 0 0 1 8.432-.787h7.471l23.523 23.523c3.984 3.982 10.44 3.982 14.425 0l23.523-23.523h7.471c2.821 0 5.657.265 8.432.787 18.348 3.455 32.914 18.133 36.246 36.523l1.707 9.421H314.676zM293.758 11.283A35.8 35.8 0 0 0 267.725 0h-23.45c-9.826 0-19.315 4.112-26.032 11.283a35.804 35.804 0 0 0-9.567 26.714l1.042 15.981 2.434 37.321c.981 15.05 9.457 28.374 22.672 35.643 6.63 3.646 13.904 5.469 21.177 5.469s14.546-1.823 21.177-5.469c13.215-7.269 21.692-20.593 22.672-35.643l2.781-42.647.696-10.656a35.806 35.806 0 0 0-9.569-26.713zM229.03 36.669c-.277-4.261 1.177-8.324 4.096-11.439 2.919-3.116 6.878-4.831 11.149-4.831h16.101l-2.863 7.634c-1.461 2.078-8.605 10.73-28.132 14.005l-.351-5.369zm50.464 53.302c-.525 8.063-5.068 15.203-12.148 19.097-7.105 3.907-15.586 3.907-22.691 0-7.08-3.894-11.623-11.034-12.148-19.097l-1.794-27.511c16.634-2.444 27.599-8.14 34.535-13.524a36.471 36.471 0 0 0 4.07 2.43c2.886 1.491 6.981 2.964 12.403 4.458l-2.227 34.147zm-.813-56.728a19.217 19.217 0 0 1-1.106-.617l2.317-6.18a15.046 15.046 0 0 1 3.094 8.475c-2.445-.8-3.713-1.372-4.305-1.678zm84.16 180.46l-3.884-21.439c-4.828-26.653-25.945-47.925-52.544-52.933a66.054 66.054 0 0 0-12.206-1.14H282.51a10.204 10.204 0 0 0-7.212 2.987L256 160.475l-19.299-19.299a10.203 10.203 0 0 0-7.212-2.987h-11.696c-4.084 0-8.191.383-12.206 1.14-26.6 5.009-47.715 26.281-52.543 52.933l-3.885 21.439a10.2 10.2 0 0 0 10.037 12.019h193.609c3.023 0 5.89-1.341 7.829-3.661a10.21 10.21 0 0 0 2.207-8.356zm-191.432-8.381l1.706-9.423c3.332-18.39 17.898-33.068 36.246-36.523a45.71 45.71 0 0 1 8.432-.787h7.472l23.522 23.523c3.984 3.983 10.44 3.983 14.425 0l23.522-23.523h7.472c2.821 0 5.658.265 8.432.787 18.348 3.456 32.915 18.133 36.247 36.524l1.706 9.422H171.409zm81.517 38.933c-5.632 0-10.199 4.566-10.199 10.199v3.074c0 5.633 4.567 10.199 10.199 10.199s10.199-4.566 10.199-10.199v-3.074c0-5.633-4.567-10.199-10.199-10.199zm71.647 116.632l-61.448-35.478V287.24c0-5.633-4.567-10.199-10.199-10.199s-10.199 4.566-10.199 10.199v38.168l-61.448 35.478c-4.878 2.816-6.55 9.054-3.733 13.932a10.196 10.196 0 0 0 13.932 3.733l61.448-35.478 61.448 35.478a10.197 10.197 0 0 0 13.932-3.733c2.817-4.878 1.146-11.115-3.733-13.931z" fill="#FFF"/></svg>