<svg xmlns="http://www.w3.org/2000/svg" viewBox="0 0 206.81 576.22"><defs><style>.cls-1{fill:#fff;}.cls-2{fill:#69f1ff;}.cls-3,.cls-5,.cls-7{fill:none;stroke-miterlimit:10;stroke-width:9px;}.cls-3{stroke:#45c7ec;}.cls-4{fill:#1bcfed;}.cls-5{stroke:#eda11b;}.cls-6{fill:#1cb5ea;}.cls-7{stroke:#ec3156;}.cls-8{fill:#45c7ec;}</style></defs><title>Ресурс 1</title><g id="Слой_2" data-name="Слой 2"><g id="Visual"><path class="cls-1" d="M160.64,401.22c-3-2.09-6-4.23-9-6.39C154.66,397,157.65,399.12,160.64,401.22Z"/><path class="cls-2" d="M160.64,401.22c-3-2.09-6-4.23-9-6.39C154.66,397,157.65,399.12,160.64,401.22Z"/><path class="cls-3" d="M136.87,407V384.14h0V283.92q-4.06-.48-8.24-1.11c-11.66,4.63-19.07,1.05-25.63-3.27l-.14-.1a32.14,32.14,0,0,0-9-4.12c-2.1-.58-4.22-1.19-6.34-1.83A15.59,15.59,0,0,0,74.9,275a47.74,47.74,0,0,0-5,3.53V407a73.91,73.91,0,1,0,66.94,0Zm.12,38.84a18.18,18.18,0,0,1,2.55.6,18.54,18.54,0,0,1,7.64,4.62,17.4,17.4,0,0,1,2.07,2.46c.15.2.28.4.41.6a18,18,0,0,1,1.16,2.05,18.62,18.62,0,0,1,1.84,8.1c0,.4,0,.8,0,1.19,0,.22,0,.45,0,.68a.06.06,0,0,1,0,0c0,.32-.07.63-.12.94a9.17,9.17,0,0,1-.16.91v0c-.06.3-.13.6-.21.89s-.13.5-.21.75-.22.69-.34,1-.21.55-.33.82a18.86,18.86,0,0,1-1.53,2.88l-.39.57a4.87,4.87,0,0,1-.35.48c-.13.18-.27.36-.41.53a17.37,17.37,0,0,1-2.51,2.56c-.18.16-.37.31-.56.45s-.35.28-.54.41l-.15.11c-.19.14-.39.27-.59.4a16.25,16.25,0,0,1-2.31,1.29c-.2.1-.41.19-.61.27s-.56.24-.85.34-.57.2-.86.29a9.05,9.05,0,0,1-.89.25,8,8,0,0,1-.85.2h-.07a15.15,15.15,0,0,1-1.79.28h-.05a17.18,17.18,0,0,1-1.91.1,18.69,18.69,0,0,1-18.68-18.69c0-.63,0-1.26.1-1.91,0-.34.07-.67.13-1s.09-.55.14-.82l0-.13c.05-.23.1-.46.16-.69s.1-.39.16-.59l.18-.61c0-.11.07-.22.11-.32s.13-.37.2-.55.19-.5.3-.75a18.92,18.92,0,0,1,9.82-9.8c.25-.11.49-.21.74-.3l.7-.25a5.25,5.25,0,0,1,.56-.18l.59-.16c.36-.1.72-.19,1.08-.26l.65-.11a10.92,10.92,0,0,1,1.13-.15q.59-.06,1.18-.08h1l.66,0,.59,0c.41,0,.82.08,1.22.14A1.45,1.45,0,0,1,137,445.79Z"/><path class="cls-4" d="M160.64,401.22c-3-2.09-6-4.23-9-6.39C154.66,397,157.65,399.12,160.64,401.22Z"/><path class="cls-5" d="M137,445.79a16.88,16.88,0,0,1,2.55.6,18.54,18.54,0,0,1,7.64,4.62,18,18,0,0,1,2.07,2.46c.15.2.28.4.41.6a19.63,19.63,0,0,1,1.16,2.05,18.62,18.62,0,0,1,1.84,8.1c0,.4,0,.8,0,1.19q0,.36-.06.72c0,.31-.07.63-.12.94s-.1.6-.16.91v0c-.06.3-.13.59-.21.89s-.13.5-.21.75-.22.69-.34,1-.21.55-.33.82a18.86,18.86,0,0,1-1.53,2.88q-.18.28-.39.57a4.87,4.87,0,0,1-.35.48c-.13.18-.27.36-.41.53a17.37,17.37,0,0,1-2.51,2.56c-.18.16-.37.31-.56.45s-.36.28-.54.41l-.15.11c-.19.14-.39.28-.59.4a16.25,16.25,0,0,1-2.31,1.29l-.61.27-.85.34-.86.29-.89.25-.85.2h-.07a16.33,16.33,0,0,1-1.84.28,17.18,17.18,0,0,1-1.91.1,18.69,18.69,0,0,1-18.68-18.69,17.21,17.21,0,0,1,.1-1.91c0-.34.07-.67.13-1s.09-.54.14-.82l0-.13c.05-.23.1-.46.16-.69s.1-.39.16-.59.12-.41.18-.61.07-.22.11-.32.13-.37.2-.55.19-.5.3-.75a18.71,18.71,0,0,1,9.82-9.8c.24-.11.49-.21.74-.3s.46-.18.7-.25a5.25,5.25,0,0,1,.56-.18c.2-.06.39-.12.59-.16.36-.1.72-.19,1.08-.26l.65-.11a10.92,10.92,0,0,1,1.13-.15,17,17,0,0,1,1.9-.1,17.78,17.78,0,0,1,2.74.21A1.45,1.45,0,0,1,137,445.79Z"/><path class="cls-6" d="M160.64,401.22c-3-2.09-6-4.23-9-6.39C154.66,397,157.65,399.12,160.64,401.22Z"/><path class="cls-6" d="M139.54,446.39a16.88,16.88,0,0,0-2.55-.6A18.18,18.18,0,0,1,139.54,446.39Zm-5.3-.84.66,0Zm.66,0,.59,0Zm.59,0c.41,0,.82.08,1.22.14C136.31,445.69,135.9,445.64,135.49,445.61Zm-1.52-.07-.69,0H134Zm-.72,0c-.4,0-.79,0-1.18.08Q132.66,445.58,133.25,445.56Zm0,0h0ZM116.8,456.85a18.92,18.92,0,0,1,9.82-9.8A18.71,18.71,0,0,0,116.8,456.85Zm-1.41,5.46a17.21,17.21,0,0,0-.1,1.91C115.29,463.59,115.33,463,115.39,462.31Z"/><path class="cls-7" d="M115.39,462.31c0-.34.07-.67.13-1s.09-.54.14-.82l0-.13c.05-.23.1-.46.16-.69s.1-.39.16-.59.12-.41.18-.61.07-.22.11-.32.13-.37.2-.55.19-.5.3-.75a18.71,18.71,0,0,1,9.82-9.8c.24-.11.49-.21.74-.3s.46-.18.7-.25a5.25,5.25,0,0,1,.56-.18c.2-.06.39-.12.59-.16.36-.1.72-.19,1.08-.26l.65-.11a10.92,10.92,0,0,1,1.13-.15,17,17,0,0,1,1.9-.1,17.78,17.78,0,0,1,2.74.21,1.45,1.45,0,0,1,.28,0,16.88,16.88,0,0,1,2.55.6,18.54,18.54,0,0,1,7.64,4.62,18,18,0,0,1,2.07,2.46c.15.2.28.4.41.6a19.63,19.63,0,0,1,1.16,2.05,18.62,18.62,0,0,1,1.84,8.1c0,.4,0,.8,0,1.19q0,.36-.06.72c0,.31-.07.63-.12.94s-.1.6-.16.91v0c-.06.3-.13.59-.21.89s-.13.5-.21.75-.22.69-.34,1-.21.55-.33.82a18.86,18.86,0,0,1-1.53,2.88q-.18.28-.39.57a4.87,4.87,0,0,1-.35.48c-.13.18-.27.36-.41.53a17.37,17.37,0,0,1-2.51,2.56c-.18.16-.37.31-.56.45s-.36.28-.54.41l-.15.11c-.19.14-.39.28-.59.4a16.25,16.25,0,0,1-2.31,1.29l-.61.27-.85.34-.86.29-.89.25-.85.2h-.07a16.33,16.33,0,0,1-1.84.28,17.18,17.18,0,0,1-1.91.1,18.69,18.69,0,0,1-18.68-18.69A17.21,17.21,0,0,1,115.39,462.31Z"/><path class="cls-8" d="M74.72,68.18H132.1a4.78,4.78,0,0,0,0-9.56H74.72a4.78,4.78,0,1,0,0,9.56Z"/><path class="cls-8" d="M132.1,77.74H103.41a4.78,4.78,0,1,0,0,9.56H132.1a4.78,4.78,0,0,0,0-9.56Z"/><path class="cls-8" d="M74.72,106.43H132.1a4.78,4.78,0,0,0,0-9.56H74.72a4.78,4.78,0,1,0,0,9.56Z"/><path class="cls-8" d="M132.1,116H103.41a4.78,4.78,0,1,0,0,9.56H132.1a4.78,4.78,0,0,0,0-9.56Z"/><path class="cls-8" d="M74.72,144.68H132.1a4.78,4.78,0,0,0,0-9.56H74.72a4.78,4.78,0,0,0,0,9.56Z"/><path class="cls-8" d="M132.1,154.24H103.41a4.78,4.78,0,1,0,0,9.56H132.1a4.78,4.78,0,0,0,0-9.56Z"/><path class="cls-8" d="M74.72,182.93H132.1a4.78,4.78,0,0,0,0-9.56H74.72a4.78,4.78,0,0,0,0,9.56Z"/><path class="cls-8" d="M132.1,192.49H103.41a4.78,4.78,0,1,0,0,9.56H132.1a4.78,4.78,0,0,0,0-9.56Z"/><path class="cls-8" d="M74.72,221.18H132.1a4.78,4.78,0,0,0,0-9.56H74.72a4.78,4.78,0,0,0,0,9.56Z"/><path class="cls-8" d="M132.1,230.74H103.41a4.78,4.78,0,1,0,0,9.56H132.1a4.78,4.78,0,0,0,0-9.56Z"/><path class="cls-8" d="M136.87,254.64a4.79,4.79,0,0,1-4.78,4.79H74.72a4.78,4.78,0,0,1,0-9.57h57.37A4.79,4.79,0,0,1,136.87,254.64Z"/><path class="cls-8" d="M165.56,390.23V46.35C165.56,17.76,144.19,0,109.78,0H99.43C64.63,0,41.25,18.63,41.25,46.35V390.23a103.4,103.4,0,1,0,124.31,0Zm-62.16,176a93.43,93.43,0,0,1-52.59-170.6V46.35C50.81,19.2,77,9.57,99.41,9.57h10.36c10.84,0,46.22,2.64,46.22,36.78V395.62a93.4,93.4,0,0,1-52.59,170.6Z"/></g></g></svg>